<svg width="571" height="138" viewBox="0 0 571 138" fill="none" xmlns="http://www.w3.org/2000/svg">
<g clip-path="url(#clip0_1222_10218)">
<path d="M124.516 0C131.769 0 137.814 6.03492 137.814 13.2768V124.319C137.814 131.561 131.769 137.596 124.516 137.596H13.2978C6.04446 137.596 0 131.561 0 124.319V13.2768C0 6.03492 6.04446 0 13.2978 0H124.516Z" fill="#813488"/>
<path d="M124.516 0C131.769 0 137.814 6.03492 137.814 13.2768V58.3376C137.814 62.7632 134.187 66.3841 129.754 66.3841H8.05928C3.62668 66.3841 0 62.7632 0 58.3376V13.2768C0 6.03492 6.04446 0 13.2978 0H124.516Z" fill="url(#paint0_radial_1222_10218)"/>
<path d="M13.2978 137.595C6.04446 137.595 0 131.56 0 124.318V79.2575C0 74.8319 3.62668 71.2109 8.05928 71.2109H129.754C134.187 71.2109 137.814 74.8319 137.814 79.2575V124.318C137.814 131.56 131.769 137.595 124.516 137.595H13.2978V137.595Z" fill="url(#paint1_radial_1222_10218)"/>
<path d="M124.517 4.42578C129.352 4.42578 133.382 8.44906 133.382 13.277V124.722C133.382 129.55 129.352 133.573 124.517 133.573H13.2988C8.46323 133.573 4.43359 129.55 4.43359 124.722V13.277C4.43359 8.44906 8.46323 4.42578 13.2988 4.42578H124.517V4.42578Z" fill="#813488"/>
<path d="M89.0552 104.203L62.4596 111.847C60.0418 112.652 57.624 111.043 57.2211 109.031L37.0729 39.0258C36.2669 36.6118 37.4758 34.1979 39.8936 33.7955L67.6981 25.749C74.1455 23.7373 80.9959 25.749 85.4285 30.5769C93.4878 39.8305 91.876 51.9003 84.2197 58.3376C93.8908 58.7399 102.756 65.5795 105.577 75.2353C108.8 87.7075 101.547 100.582 89.0552 104.203Z" fill="#4C205B"/>
<path d="M93.0838 55.1201C97.1134 47.0735 97.1134 37.0153 90.263 28.5664C85.0245 22.1292 74.1444 18.5082 66.0852 20.9222L37.4747 28.9687C33.0421 30.1757 30.2214 35.0037 31.8332 39.4293L52.3844 111.446C53.5933 115.872 58.4288 118.688 62.8615 117.481L91.4719 109.434C101.143 106.618 110.008 96.1575 111.217 86.5017C112.829 71.2132 104.367 59.5457 93.0838 55.1201ZM89.0541 104.204L62.4585 111.848C60.0407 112.653 57.6229 111.044 57.22 109.032L37.0718 39.0269C36.2658 36.613 37.4747 34.199 39.8925 33.7967L67.697 25.7501C74.1444 23.7385 80.9948 25.7501 85.4274 30.578C93.4867 39.8316 91.8749 51.9014 84.2185 58.3387C93.8897 58.741 102.755 65.5806 105.576 75.2365C108.799 87.7087 101.546 100.583 89.0541 104.204Z" fill="white"/>
<path d="M97.5188 85.6959C97.5188 74.0284 87.8477 64.3725 76.1617 63.9702C83.4151 57.9352 85.4299 46.2677 77.3706 37.4165C72.938 32.5886 66.0876 30.5769 60.0432 32.1862L37.0742 39.0258L57.2224 109.031C58.0283 111.445 60.4461 112.652 62.461 111.847L81.4003 106.215C81.4003 106.215 81.4003 106.215 81.8032 106.215C91.0714 103.801 97.5188 95.3518 97.5188 85.6959Z" fill="#813488"/>
<path d="M328.818 65.5795C313.908 65.5795 305.043 56.7283 305.043 38.6235V8.04655C305.043 3.62094 307.461 0.804641 311.087 0.804641C314.714 0.804641 317.132 3.62094 317.132 8.04655V37.4165C317.132 49.4864 321.162 53.5096 328.415 53.5096C336.071 53.5096 339.698 49.4864 339.698 37.4165V8.04655C339.698 3.62094 342.116 0.804641 345.742 0.804641C349.369 0.804641 351.787 3.62094 351.787 8.04655V38.6235C352.19 56.3259 343.728 65.5795 328.818 65.5795ZM190.601 31.3816C195.84 28.163 198.258 23.335 198.258 18.1048C198.258 7.64422 191.004 -1.55866e-05 175.692 -1.55866e-05H158.767C155.14 -1.55866e-05 152.723 2.41395 152.723 6.03491V59.5446C152.723 63.1655 155.14 65.5795 158.767 65.5795H175.692C195.034 65.5795 201.481 57.5329 201.481 47.0724C201.884 40.2328 197.855 34.6002 190.601 31.3816C190.601 31.3816 190.601 31.7839 190.601 31.3816ZM231.704 27.3583L218.003 4.42559C216.794 2.01163 215.182 0.804641 212.361 0.804641C208.735 0.804641 206.317 3.21861 206.317 6.43724C206.317 8.44888 206.72 9.65586 207.929 11.2652L225.659 39.4281V58.3376C225.659 62.7632 228.48 65.5795 231.704 65.5795C235.33 65.5795 237.748 62.7632 237.748 58.3376V39.8305L255.478 11.6675C256.687 10.0582 257.09 8.44888 257.09 6.83956C257.09 3.62094 254.27 1.20697 251.046 1.20697C248.225 1.20697 247.016 2.81628 245.404 4.82792L231.704 27.3583ZM365.891 23.335C367.502 23.335 369.114 22.5304 370.323 20.5187C371.935 16.8978 373.547 10.4605 373.547 7.24189C373.547 3.21861 371.532 0.402313 367.099 0.402313C362.667 0.402313 360.652 3.62094 360.652 8.8512V13.6791C360.652 20.1164 362.264 23.335 365.891 23.335ZM251.449 48.6817C251.449 54.7166 256.687 65.5795 270.791 65.5795C284.895 65.5795 292.148 57.1306 292.148 41.8421V8.04655C292.148 3.62094 289.73 0.804641 286.104 0.804641C282.074 0.804641 280.059 3.62094 280.059 8.04655V42.2444C280.059 49.8887 277.239 53.5096 271.194 53.912C260.717 53.912 265.15 43.0491 257.896 42.6468C255.075 42.2444 251.449 44.2561 251.449 48.6817ZM180.124 25.749C176.095 26.5536 173.677 28.163 173.677 31.7839C173.677 35.8072 176.095 37.8188 180.124 38.2212C186.975 39.0258 189.392 41.4398 189.392 46.6701C189.392 51.498 185.363 54.3143 177.706 54.3143H165.215V11.2652H178.915C184.154 11.2652 186.572 14.4838 186.572 18.9094C186.169 22.9327 184.154 24.9443 180.124 25.749ZM388.457 49.084C386.845 47.4747 384.83 45.4631 382.815 45.4631C379.994 45.4631 377.174 47.0724 377.174 51.498C377.174 53.1073 377.979 55.1189 379.591 57.1306C383.621 62.3608 390.874 66.3841 400.545 66.3841C412.231 66.3841 421.903 59.9469 421.903 48.2794C421.903 25.749 391.68 27.7606 391.68 17.7024C391.68 13.6791 394.501 11.6675 398.934 11.6675C402.157 11.6675 404.978 12.4722 406.993 14.0815C409.411 15.6908 411.023 18.9094 414.649 18.9094C417.873 18.9094 420.291 16.8978 420.291 13.6791C420.291 9.25353 415.858 5.23025 411.828 2.81628C408.605 0.804641 404.172 -0.402344 398.531 -0.402344C388.86 -0.402344 379.188 5.23025 379.188 17.7024C379.188 38.2212 409.411 34.6002 409.411 47.0724C409.411 51.498 405.784 53.912 400.545 53.912C395.307 54.3143 392.083 52.3026 388.457 49.084Z" fill="#813488"/>
<path d="M311.087 2.01167C314.714 2.01167 317.132 4.82797 317.132 9.25358V8.04659C317.132 3.62098 314.714 0.804688 311.087 0.804688C307.461 0.804688 305.043 3.62098 305.043 8.04659V9.25358C305.043 4.82797 307.461 2.01167 311.087 2.01167Z" fill="#A054A0"/>
<path d="M317.129 38.623C317.129 50.6929 321.159 54.7161 328.412 54.7161C336.068 54.7161 339.695 50.6929 339.695 38.623V37.416C339.695 49.4859 335.665 53.5091 328.412 53.5091C320.756 53.5091 317.129 49.4859 317.129 37.416V38.623Z" fill="#A054A0"/>
<path d="M391.277 18.5078C391.277 18.9101 391.277 18.9101 391.277 19.3125C391.277 29.3707 420.694 27.359 421.097 49.0847V48.6824C421.5 26.152 392.486 27.7614 391.277 18.5078Z" fill="#A054A0"/>
<path d="M212.361 2.01167C215.182 2.01167 216.39 3.62098 218.002 5.63263L231.703 28.5653L245.404 5.63263C246.613 3.21866 248.225 2.01167 251.045 2.01167C254.269 2.01167 257.09 4.02331 257.09 7.24194C257.09 6.83961 257.09 6.83961 257.09 6.43728C257.09 3.21866 254.269 0.804688 251.045 0.804688C248.225 0.804688 247.016 2.414 245.404 4.42564L231.703 27.3584L218.002 4.42564C216.793 2.01167 215.182 0.804688 212.361 0.804688C208.734 0.804688 206.316 3.21866 206.316 6.43728C206.316 6.83961 206.316 6.83961 206.316 7.24194C206.719 4.42564 209.137 2.01167 212.361 2.01167Z" fill="#A054A0"/>
<path d="M382.813 46.6699C385.231 46.6699 386.843 48.2792 388.455 50.2908C391.679 53.5095 395.305 55.5211 400.141 55.5211C405.379 55.5211 409.006 53.1071 409.006 48.6815C409.006 48.2792 409.006 48.2792 409.006 47.8769C408.603 52.3025 405.379 54.3141 400.141 54.3141C395.305 54.3141 392.082 52.3025 388.455 49.0838C386.843 47.4745 384.828 45.4629 382.813 45.4629C379.993 45.4629 377.172 47.0722 377.172 51.4978V51.9001C377.172 48.2792 380.396 46.6699 382.813 46.6699Z" fill="#A054A0"/>
<path d="M398.128 1.20698C403.77 1.20698 408.202 2.8163 411.426 4.42561C415.053 6.43725 419.485 10.4605 419.485 14.4838V14.0815C419.485 9.65587 415.053 5.63259 411.023 3.21862C407.799 1.20698 403.367 0 397.725 0C388.054 0 378.383 5.63259 378.383 18.1048V18.5071C379.189 6.43725 388.86 1.20698 398.128 1.20698Z" fill="#A054A0"/>
<path d="M251.449 48.6814C251.449 49.0837 251.449 49.0837 251.449 49.486C251.852 45.4628 255.076 43.4511 257.897 43.8535C265.15 44.2558 260.717 55.521 271.194 55.1186C277.239 55.1186 280.06 51.4977 280.06 43.4511V42.2441C280.06 49.8884 277.239 53.5093 271.194 53.9117C260.717 53.9117 265.15 43.0488 257.897 42.6465C255.076 42.2441 251.449 44.2558 251.449 48.6814Z" fill="#A054A0"/>
<path d="M346.146 0.804688C342.519 0.804688 340.102 3.62098 340.102 8.04659V9.25358C340.102 4.82797 342.519 2.01167 346.146 2.01167C349.773 2.01167 352.19 4.82797 352.19 9.25358V8.04659C352.19 3.62098 349.773 0.804688 346.146 0.804688Z" fill="#A054A0"/>
<path d="M366.694 0.804688C362.261 0.804688 360.246 4.02331 360.246 9.25358V10.4606C360.246 5.2303 362.261 2.01167 366.694 2.01167C370.723 2.01167 372.738 4.42564 373.141 8.04659V7.64427C373.141 3.21866 371.126 0.804688 366.694 0.804688Z" fill="#A054A0"/>
<path d="M286.505 0.804688C282.476 0.804688 280.461 3.62098 280.461 8.04659V9.25358C280.461 4.82797 282.879 2.01167 286.505 2.01167C290.132 2.01167 292.55 4.82797 292.55 9.25358V8.04659C292.55 3.62098 289.729 0.804688 286.505 0.804688Z" fill="#A054A0"/>
<path d="M159.169 1.20698H176.093C190.6 1.20698 198.256 8.44889 198.659 18.5071V18.1048C198.659 7.64423 191.406 0 176.093 0H159.169C155.542 0 153.124 2.41397 153.124 6.03492V7.24191C152.721 3.62095 155.542 1.20698 159.169 1.20698Z" fill="#A054A0"/>
<path d="M180.123 25.7498C176.094 26.5544 173.676 28.1637 173.676 31.7847C173.676 32.187 173.676 32.187 173.676 32.187C174.079 28.566 176.497 27.3591 180.123 26.5544C184.153 25.7498 186.168 23.7381 186.168 19.7148C186.168 19.3125 186.168 19.3125 186.168 19.3125C186.168 22.9335 183.75 24.9451 180.123 25.7498Z" fill="#A054A0"/>
<path d="M177.707 55.5212C185.363 55.5212 189.393 52.7049 189.393 47.8769C189.393 47.4746 189.393 47.4746 189.393 47.0723C188.99 51.4979 185.363 54.3142 177.707 54.3142H165.215V55.5212H177.707V55.5212Z" fill="#A054A0"/>
<path d="M190.602 31.7842C190.602 31.7842 190.602 31.3818 190.602 31.7842C190.602 31.3818 190.602 31.3818 190.602 31.7842C190.602 31.3818 190.602 31.3818 190.602 31.7842C190.602 31.7842 190.199 31.7842 189.796 32.1865C189.393 32.1865 189.796 32.5888 189.796 32.9912L190.199 33.3935C197.05 36.2098 201.079 41.8424 201.079 49.0843C201.079 48.6819 201.079 48.6819 201.079 48.2796C201.079 46.268 200.676 44.6587 200.273 42.647C199.467 37.4168 195.841 33.7958 190.602 31.7842Z" fill="#A054A0"/>
<path d="M565.761 73.627H158.767H142.648L147.081 81.2712C150.708 87.3061 152.723 94.548 152.723 101.79V132.769C152.723 135.988 155.14 138.402 158.364 138.402H565.358C568.581 138.402 570.999 135.988 570.999 132.769V79.2596C570.999 76.0409 568.581 73.627 565.761 73.627Z" fill="#02A586"/>
<path d="M174.887 118.686V94.949H168.036C166.424 94.949 164.812 93.742 164.812 91.7303C164.812 90.121 166.424 88.5117 168.036 88.5117H188.99C190.602 88.5117 192.214 89.7187 192.214 91.7303C192.214 93.3397 190.602 94.949 188.99 94.949H182.14V118.686C182.14 120.698 180.528 122.307 178.513 122.307C176.498 121.905 174.887 120.296 174.887 118.686Z" fill="white"/>
<path d="M195.84 92.1327C195.84 90.121 197.452 88.5117 199.467 88.5117C201.481 88.5117 203.093 90.121 203.093 92.1327V108.628C203.093 113.054 205.511 116.272 210.75 116.272C215.988 116.272 218.406 113.054 218.406 108.628V92.1327C218.406 90.121 220.018 88.5117 222.033 88.5117C224.047 88.5117 225.659 90.121 225.659 92.1327V108.628C225.659 116.675 220.824 122.307 211.152 122.307C201.078 122.307 196.243 116.675 196.243 108.628V92.1327H195.84Z" fill="white"/>
<path d="M232.109 118.686V92.1327C232.109 90.121 233.721 88.5117 235.736 88.5117C237.751 88.5117 239.363 90.121 239.363 92.1327V118.686C239.363 120.698 237.751 122.307 235.736 122.307C233.721 121.905 232.109 120.296 232.109 118.686Z" fill="white"/>
<path d="M252.66 118.686V94.949H245.81C244.198 94.949 242.586 93.742 242.586 91.7303C242.586 90.121 244.198 88.5117 245.81 88.5117H266.764C268.376 88.5117 269.987 89.7187 269.987 91.7303C269.987 93.3397 268.376 94.949 266.764 94.949H259.913V118.686C259.913 120.698 258.302 122.307 256.287 122.307C254.272 121.905 252.66 120.296 252.66 118.686Z" fill="white"/>
<path d="M273.613 118.686V92.1327C273.613 90.121 275.225 88.5117 277.24 88.5117C279.255 88.5117 280.867 90.121 280.867 92.1327V118.686C280.867 120.698 279.255 122.307 277.24 122.307C275.225 121.905 273.613 120.296 273.613 118.686Z" fill="white"/>
<path d="M302.624 88.1094C312.698 88.1094 319.952 95.3513 319.952 105.007C319.952 115.065 312.698 121.905 302.624 121.905C292.55 121.905 285.297 114.663 285.297 105.007C285.297 95.3513 292.953 88.1094 302.624 88.1094ZM302.624 94.5466C296.58 94.5466 292.55 99.3746 292.55 105.409C292.55 111.444 296.58 116.272 302.624 116.272C308.669 116.272 312.698 111.444 312.698 105.409C312.698 98.9722 308.669 94.5466 302.624 94.5466Z" fill="white"/>
<path d="M346.549 120.296L332.042 99.7769V118.686C332.042 120.698 330.431 122.307 328.416 122.307C326.401 122.307 324.789 120.698 324.789 118.686V92.9373C324.789 90.5234 326.804 88.5117 329.222 88.5117C330.834 88.5117 332.042 89.3164 332.848 90.5234L346.952 110.237V92.1327C346.952 90.121 348.564 88.5117 350.579 88.5117C352.594 88.5117 354.205 90.121 354.205 92.1327V117.882C354.205 120.296 352.191 122.307 349.773 122.307C348.967 121.905 347.355 121.503 346.549 120.296Z" fill="white"/>
<path d="M372.34 105.41C372.34 95.3513 379.996 88.5117 389.667 88.5117C395.309 88.5117 398.935 90.5234 401.353 93.3397C401.756 93.742 402.159 94.5466 402.159 95.7536C402.159 97.7653 400.547 98.9722 398.935 98.9722C398.13 98.9722 396.921 98.5699 396.518 97.7653C394.906 95.7536 392.488 94.5466 389.667 94.5466C384.026 94.5466 379.593 98.9723 379.593 105.41C379.593 111.444 384.026 116.272 389.667 116.272C392.488 116.272 394.906 115.065 396.518 113.054C396.921 112.249 398.13 111.847 398.935 111.847C400.95 111.847 402.159 113.456 402.159 115.065C402.159 115.87 401.756 116.675 401.353 117.077C398.532 119.893 394.906 121.905 389.667 121.905C379.996 122.307 372.34 115.468 372.34 105.41Z" fill="white"/>
<path d="M407.398 117.882V92.535C407.398 90.121 408.607 88.9141 411.025 88.9141H427.95C429.561 88.9141 431.173 90.121 431.173 92.1327C431.173 93.742 429.964 94.949 427.95 94.949H414.249V102.191H427.547C429.159 102.191 430.77 103.398 430.77 105.007C430.77 106.616 429.561 107.823 427.547 107.823H414.249V115.468H427.95C429.561 115.468 431.173 116.675 431.173 118.284C431.173 119.893 429.964 121.503 427.95 121.503H411.025C408.607 121.503 407.398 120.296 407.398 117.882Z" fill="white"/>
<path d="M458.17 120.296L443.663 99.7769V118.686C443.663 120.698 442.052 122.307 440.037 122.307C438.022 122.307 436.41 120.698 436.41 118.686V92.9373C436.41 90.5234 438.425 88.5117 440.843 88.5117C442.455 88.5117 443.664 89.3164 444.469 90.5234L458.573 110.237V92.1327C458.573 90.121 460.185 88.5117 462.2 88.5117C464.215 88.5117 465.826 90.121 465.826 92.1327V117.882C465.826 120.296 463.812 122.307 461.394 122.307C460.185 121.905 458.976 121.503 458.17 120.296Z" fill="white"/>
<path d="M479.527 118.686V94.949H472.677C471.065 94.949 469.453 93.742 469.453 91.7303C469.453 90.121 471.065 88.5117 472.677 88.5117H493.631C495.243 88.5117 496.855 89.7187 496.855 91.7303C496.855 93.3397 495.243 94.949 493.631 94.949H486.781V118.686C486.781 120.698 485.169 122.307 483.154 122.307C481.139 121.905 479.527 120.296 479.527 118.686Z" fill="white"/>
<path d="M526.27 116.675C526.672 117.077 527.075 117.882 527.075 119.089C527.075 120.698 525.464 122.307 523.852 122.307C522.643 122.307 521.434 121.503 521.031 120.698L513.778 109.835H508.136V118.284C508.136 120.296 506.524 121.905 504.509 121.905C502.495 121.905 500.883 120.296 500.883 118.284V92.535C500.883 90.121 502.092 88.9141 504.509 88.9141H516.195C523.046 88.9141 527.478 93.3397 527.478 99.3746C527.478 104.605 524.658 107.823 521.031 109.03L526.27 116.675ZM507.33 103.8H514.584C517.404 103.8 519.419 102.191 519.419 99.3746C519.419 96.5583 517.404 94.949 514.584 94.949H507.33V103.8Z" fill="white"/>
<path d="M532.719 117.882V92.535C532.719 90.121 533.928 88.9141 536.345 88.9141H553.27C554.882 88.9141 556.494 90.121 556.494 92.1327C556.494 93.742 555.285 94.949 553.27 94.949H539.569V102.191H552.867C554.479 102.191 556.091 103.398 556.091 105.007C556.091 106.616 554.882 107.823 552.867 107.823H539.569V115.468H553.27C554.882 115.468 556.494 116.675 556.494 118.284C556.494 119.893 555.285 121.503 553.27 121.503H536.345C533.928 121.503 532.719 120.296 532.719 117.882Z" fill="white"/>
</g>
<defs>
<radialGradient id="paint0_radial_1222_10218" cx="0" cy="0" r="1" gradientUnits="userSpaceOnUse" gradientTransform="translate(69.43 -46.0521) rotate(90) scale(84.7524 108.926)">
<stop offset="0.8208" stop-color="#A054A0"/>
<stop offset="0.8903" stop-color="#813488"/>
</radialGradient>
<radialGradient id="paint1_radial_1222_10218" cx="0" cy="0" r="1" gradientUnits="userSpaceOnUse" gradientTransform="translate(68.3834 183.6) rotate(-90) scale(84.7524 108.926)">
<stop offset="0.8208" stop-color="#5F286F"/>
<stop offset="0.8903" stop-color="#813488"/>
</radialGradient>
<clipPath id="clip0_1222_10218">
<rect width="571" height="137.999" fill="white"/>
</clipPath>
</defs>
</svg>
